<svg version="1.1" id="Layer_1" xmlns="http://www.w3.org/2000/svg" xmlns:xlink="http://www.w3.org/1999/xlink" x="0px" y="0px"
	 width="100%" viewBox="0 0 200 200" enable-background="new 0 0 200 200" xml:space="preserve">
<path fill="#FFFFFF" opacity="1.000000" stroke="none" 
	d="
M201.000000,53.000000 
	C201.000000,102.666664 201.000000,151.833328 201.000000,201.000000 
	C134.333328,201.000000 67.666664,201.000000 1.000000,201.000000 
	C1.000000,134.333328 1.000000,67.666664 1.000000,1.000000 
	C67.666664,1.000000 134.333328,1.000000 201.000000,1.000000 
	C201.000000,18.166666 201.000000,35.333332 201.000000,53.000000 
M185.070343,8.018862 
	C144.669724,8.012255 104.269081,7.989440 63.868465,8.007093 
	C47.911644,8.014066 31.954863,8.111168 15.101344,8.019792 
	C12.872073,8.019792 10.642801,8.019792 8.164815,8.019792 
	C8.164815,11.933564 8.164815,15.464832 8.015565,19.923315 
	C8.009317,72.774826 7.995604,125.626343 8.034248,178.477814 
	C8.035364,180.003250 8.591288,181.528275 8.654376,183.847321 
	C8.385134,187.152603 8.115892,190.457886 7.840677,193.836502 
	C11.083586,193.836502 13.537859,193.836502 16.920509,193.980988 
	C57.321991,193.987640 97.723480,194.010452 138.124954,193.992905 
	C154.082153,193.985962 170.039307,193.889160 186.893982,193.980606 
	C189.124069,193.980606 191.354156,193.980606 193.835037,193.980606 
	C193.835037,190.062180 193.835037,186.529617 193.983856,182.070648 
	C193.989532,144.999893 194.013290,107.929123 193.992935,70.858376 
	C193.983444,53.573666 193.888474,36.289013 193.979584,18.088825 
	C193.979584,14.757209 193.979584,11.425593 193.979584,8.165865 
	C190.856262,8.165865 188.426636,8.165865 185.070343,8.018862 
z"/>
<path fill="#230640" opacity="1.000000" stroke="none" 
	d="
M185.996490,193.833267 
	C170.039307,193.889160 154.082153,193.985962 138.124954,193.992905 
	C97.723480,194.010452 57.321991,193.987640 16.456472,193.465546 
	C15.989326,183.365646 15.989326,183.365646 8.888521,183.053497 
	C8.591288,181.528275 8.035364,180.003250 8.034248,178.477814 
	C7.995604,125.626343 8.009317,72.774826 8.484720,19.460524 
	C10.856387,19.148426 12.758899,19.299120 15.998064,19.555687 
	C15.998064,15.542960 15.998064,11.855095 15.998064,8.167231 
	C31.954863,8.111168 47.911644,8.014066 63.868465,8.007093 
	C104.269081,7.989440 144.669724,8.012255 185.534637,8.535501 
	C186.102600,18.935127 184.577469,19.089716 193.832245,19.004335 
	C193.888474,36.289013 193.983444,53.573666 193.992935,70.858376 
	C194.013290,107.929123 193.989532,144.999893 193.481476,182.534821 
	C186.008255,183.031235 186.008194,183.031235 186.000031,189.950439 
	C185.998505,191.244720 185.997665,192.538986 185.996490,193.833267 
M24.381746,33.303612 
	C22.908415,36.201118 21.435085,39.098621 19.435856,42.378998 
	C18.961267,43.585320 18.486679,44.791641 17.712944,46.673615 
	C17.476334,48.115337 17.239725,49.557056 16.694302,51.699371 
	C16.464920,53.464848 16.235537,55.230320 16.001259,57.908287 
	C16.001068,59.401974 15.982199,60.895935 16.004103,62.389297 
	C16.076679,67.337639 16.708897,67.763664 21.656828,66.226547 
	C22.446964,65.981087 23.236940,65.733589 24.018990,65.463837 
	C50.921574,56.184097 77.810524,46.864254 104.757652,37.715767 
	C106.309952,37.188763 108.334770,38.053577 109.772530,38.871937 
	C105.760803,44.320107 105.280487,50.762592 104.949219,57.133430 
	C104.640961,63.061684 104.883392,69.018578 104.883392,75.370186 
	C99.654129,75.370186 95.048080,75.370186 90.191910,75.370186 
	C90.191910,83.852264 90.191910,91.913567 90.191910,100.591743 
	C95.081474,100.591743 99.802544,100.591743 105.038010,100.591743 
	C105.038010,125.064484 105.038010,148.926849 105.038010,172.643677 
	C115.136467,172.643677 124.686737,172.643677 134.785797,172.643677 
	C134.785797,148.407333 134.785797,124.528732 134.785797,100.212692 
	C141.603302,100.212692 147.863480,100.212692 154.402390,100.212692 
	C155.267975,91.788528 156.090546,83.782982 156.985962,75.068489 
	C149.590408,75.068489 142.799011,75.068489 136.004959,74.136116 
	C135.639389,70.082657 135.273819,66.029198 134.695557,61.172680 
	C135.278091,54.633434 136.792267,53.122879 143.358475,52.942219 
	C147.772125,52.820782 152.191818,52.919098 156.526459,52.919098 
	C156.526459,44.152584 156.526459,36.113068 156.526459,27.674255 
	C151.681763,27.674255 147.205078,27.674255 142.901062,26.875582 
	C145.892792,24.533800 148.884537,22.192019 152.472214,19.383757 
	C145.092911,15.516173 137.891678,17.537218 130.062683,17.000601 
	C124.374916,17.000875 118.687157,17.001148 112.078232,16.997437 
	C108.385315,16.999004 104.692398,17.000572 100.078354,16.994991 
	C96.385468,16.997004 92.692581,16.999016 88.064545,16.992964 
	C82.709595,16.995525 77.354645,16.998087 71.062538,16.989779 
	C66.566757,16.986019 62.066544,17.110264 57.576031,16.954622 
	C43.823902,16.477968 33.248722,22.352989 24.381746,33.303612 
z"/>
<path fill="#230640" opacity="1.000000" stroke="none" 
	d="
M15.549704,8.093512 
	C15.998064,11.855095 15.998064,15.542960 15.998064,19.555687 
	C12.758899,19.299120 10.856387,19.148426 8.559345,18.996918 
	C8.164815,15.464832 8.164815,11.933564 8.164815,8.019792 
	C10.642801,8.019792 12.872073,8.019792 15.549704,8.093512 
z"/>
<path fill="#230640" opacity="1.000000" stroke="none" 
	d="
M193.905914,18.546581 
	C184.577469,19.089716 186.102600,18.935127 185.997955,8.609003 
	C188.426636,8.165865 190.856262,8.165865 193.979584,8.165865 
	C193.979584,11.425593 193.979584,14.757209 193.905914,18.546581 
z"/>
<path fill="#230640" opacity="1.000000" stroke="none" 
	d="
M186.445236,193.906937 
	C185.997665,192.538986 185.998505,191.244720 186.000031,189.950439 
	C186.008194,183.031235 186.008255,183.031235 193.407059,182.998032 
	C193.835037,186.529617 193.835037,190.062180 193.835037,193.980606 
	C191.354156,193.980606 189.124069,193.980606 186.445236,193.906937 
z"/>
<path fill="#230640" opacity="1.000000" stroke="none" 
	d="
M8.771448,183.450409 
	C15.989326,183.365646 15.989326,183.365646 15.992284,193.393311 
	C13.537859,193.836502 11.083586,193.836502 7.840677,193.836502 
	C8.115892,190.457886 8.385134,187.152603 8.771448,183.450409 
z"/>
<path fill="#fff" opacity="1.000000" stroke="none" 
	d="
M136.007614,75.068489 
	C142.799011,75.068489 149.590408,75.068489 156.985962,75.068489 
	C156.090546,83.782982 155.267975,91.788528 154.402390,100.212692 
	C147.863480,100.212692 141.603302,100.212692 134.785797,100.212692 
	C134.785797,124.528732 134.785797,148.407333 134.785797,172.643677 
	C124.686737,172.643677 115.136467,172.643677 105.038010,172.643677 
	C105.038010,148.926849 105.038010,125.064484 105.038010,100.591743 
	C99.802544,100.591743 95.081474,100.591743 90.191910,100.591743 
	C90.191910,91.913567 90.191910,83.852264 90.191910,75.370186 
	C95.048080,75.370186 99.654129,75.370186 104.883392,75.370186 
	C104.883392,69.018578 104.640961,63.061684 104.949219,57.133430 
	C105.280487,50.762592 105.760803,44.320107 110.252327,38.403038 
	C114.739304,32.850769 120.064835,29.859217 126.358955,28.967558 
	C131.767944,28.201290 137.268387,28.080479 142.728394,27.674255 
	C147.205078,27.674255 151.681763,27.674255 156.526459,27.674255 
	C156.526459,36.113068 156.526459,44.152584 156.526459,52.919098 
	C152.191818,52.919098 147.772125,52.820782 143.358475,52.942219 
	C136.792267,53.122879 135.278091,54.633434 134.685547,62.027248 
	C135.119553,66.944038 135.563583,71.006264 136.007614,75.068489 
z"/>
<path fill="#230640" opacity="1.000000" stroke="none" 
	d="
M142.814728,27.274918 
	C137.268387,28.080479 131.767944,28.201290 126.358955,28.967558 
	C120.064835,29.859217 114.739304,32.850769 110.435905,38.102394 
	C108.334770,38.053577 106.309952,37.188763 104.757652,37.715767 
	C77.810524,46.864254 50.921574,56.184097 24.018990,65.463837 
	C23.236940,65.733589 22.446964,65.981087 21.656828,66.226547 
	C16.708897,67.763664 16.076679,67.337639 16.004103,62.389297 
	C15.982199,60.895935 16.001068,59.401974 16.419201,57.453644 
	C18.939461,56.612396 21.122341,56.466923 23.129755,55.796253 
	C30.671267,53.276665 38.141689,50.545345 45.663761,47.966312 
	C72.779793,38.669266 99.914696,29.427050 127.005096,20.056078 
	C128.508347,19.536081 129.674896,18.042704 130.998169,17.002394 
	C137.891678,17.537218 145.092911,15.516173 152.472214,19.383757 
	C148.884537,22.192019 145.892792,24.533800 142.814728,27.274918 
z"/>
<path fill="#230640" opacity="1.000000" stroke="none" 
	d="
M130.530426,17.001495 
	C129.674896,18.042704 128.508347,19.536081 127.005096,20.056078 
	C99.914696,29.427050 72.779793,38.669266 45.663761,47.966312 
	C38.141689,50.545345 30.671267,53.276665 23.129755,55.796253 
	C21.122341,56.466923 18.939461,56.612396 16.421648,56.997398 
	C16.235537,55.230320 16.464920,53.464848 17.250305,51.348770 
	C21.885942,49.703533 25.990652,48.482494 30.041138,47.102318 
	C56.377850,38.128220 82.711731,29.145439 109.008263,20.054771 
	C110.510910,19.535311 111.676781,18.041674 112.999390,17.001421 
	C118.687157,17.001148 124.374916,17.000875 130.530426,17.001495 
z"/>
<path fill="#230640" opacity="1.000000" stroke="none" 
	d="
M112.538811,16.999428 
	C111.676781,18.041674 110.510910,19.535311 109.008263,20.054771 
	C82.711731,29.145439 56.377850,38.128220 30.041138,47.102318 
	C25.990652,48.482494 21.885942,49.703533 17.404713,50.998474 
	C17.239725,49.557056 17.476334,48.115337 18.276791,46.336479 
	C20.619946,45.694519 22.478598,45.623241 24.166632,45.049755 
	C48.629070,36.738953 73.077484,28.386381 97.489822,19.929979 
	C98.836220,19.463593 99.837540,18.001019 100.999481,17.002136 
	C104.692398,17.000572 108.385315,16.999004 112.538811,16.999428 
z"/>
<path fill="#230640" opacity="1.000000" stroke="none" 
	d="
M71.999695,17.000645 
	C77.354645,16.998087 82.709595,16.995525 88.474915,17.351656 
	C88.012619,18.403839 87.245354,19.409245 86.251793,19.744980 
	C64.170174,27.206621 42.063595,34.594360 19.961754,41.996128 
	C21.435085,39.098621 22.908415,36.201118 24.914492,33.417908 
	C26.082708,33.607777 26.795826,33.911537 27.342312,33.725586 
	C41.484577,28.913452 55.617599,24.073503 69.718445,19.141792 
	C70.618393,18.827040 71.245605,17.732452 71.999695,17.000645 
z"/>
<path fill="#230640" opacity="1.000000" stroke="none" 
	d="
M19.698805,42.187561 
	C42.063595,34.594360 64.170174,27.206621 86.251793,19.744980 
	C87.245354,19.409245 88.012619,18.403839 88.942490,17.355690 
	C92.692581,16.999016 96.385468,16.997004 100.538918,16.998564 
	C99.837540,18.001019 98.836220,19.463593 97.489822,19.929979 
	C73.077484,28.386381 48.629070,36.738953 24.166632,45.049755 
	C22.478598,45.623241 20.619946,45.694519 18.426363,45.998657 
	C18.486679,44.791641 18.961267,43.585320 19.698805,42.187561 
z"/>
<path fill="#230640" opacity="1.000000" stroke="none" 
	d="
M71.531113,16.995213 
	C71.245605,17.732452 70.618393,18.827040 69.718445,19.141792 
	C55.617599,24.073503 41.484577,28.913452 27.342312,33.725586 
	C26.795826,33.911537 26.082708,33.607777 25.218390,33.259613 
	C33.248722,22.352989 43.823902,16.477968 57.576031,16.954622 
	C62.066544,17.110264 66.566757,16.986019 71.531113,16.995213 
z"/>
<path fill="#230640" opacity="1.000000" stroke="none" 
	d="
M136.006287,74.602303 
	C135.563583,71.006264 135.119553,66.944038 134.791885,62.428776 
	C135.273819,66.029198 135.639389,70.082657 136.006287,74.602303 
z"/>
</svg>