<svg version="1.1" id="Layer_1" xmlns="http://www.w3.org/2000/svg" xmlns:xlink="http://www.w3.org/1999/xlink" x="0px" y="0px"
	 width="100%" viewBox="0 0 200 200" enable-background="new 0 0 200 200" xml:space="preserve">
<path fill="#230640" opacity="1.000000" stroke="none" 
	d="
M1.000000,160.000000 
	C1.000000,120.979103 1.000000,81.958214 1.326110,42.761738 
	C2.426713,41.390614 3.550639,40.294441 3.923131,38.984577 
	C9.264467,20.201811 21.692949,8.894825 40.345352,3.924952 
	C42.036613,3.474321 43.454933,1.999305 45.000000,1.000001 
	C82.020897,1.000000 119.041786,1.000000 156.235748,1.334889 
	C157.049576,2.109552 157.631607,2.736411 158.340561,2.958941 
	C163.176865,4.476972 168.584152,5.006687 172.791077,7.541636 
	C184.886322,14.829795 194.519058,24.468914 198.111496,38.865406 
	C198.413361,40.075203 200.006683,40.962742 201.000000,42.000000 
	C201.000000,81.020897 201.000000,120.041786 200.681641,159.239624 
	C198.527328,163.759888 197.122177,168.354568 194.765289,172.393921 
	C189.926819,180.686386 183.749313,188.071808 175.286011,192.776855 
	C170.240417,195.581894 164.385117,196.916794 158.941071,199.034134 
	C158.157684,199.338821 157.640411,200.327728 157.000000,201.000000 
	C119.979103,201.000000 82.958214,201.000000 45.764015,200.667450 
	C44.780685,199.885452 44.011879,199.326050 43.153934,199.004440 
	C37.644409,196.939194 31.615952,195.742065 26.694229,192.729935 
	C15.651577,185.971741 7.548536,176.500290 3.921943,163.667786 
	C3.529943,162.280701 2.001364,161.214859 1.000000,160.000000 
M76.500259,182.000000 
	C95.662781,182.000000 114.825691,182.066376 133.987549,181.954239 
	C138.898041,181.925507 143.850296,181.643585 148.705307,180.939713 
	C161.925446,179.023071 172.915176,172.918228 177.250809,159.881180 
	C180.271667,150.797638 181.628357,140.807907 181.777832,131.192642 
	C182.133835,108.289795 181.527664,85.363441 180.874908,62.458988 
	C180.692490,56.057304 179.429825,49.590874 177.882019,43.347687 
	C175.923965,35.449684 170.338486,29.204535 163.694366,25.725540 
	C157.082626,22.263502 148.950638,20.494652 141.410629,20.245884 
	C120.105049,19.542950 98.758461,19.798960 77.433678,20.090694 
	C67.775459,20.222824 58.021038,20.650480 48.508087,22.176931 
	C37.197308,23.991863 29.416689,31.010744 24.749706,41.607937 
	C20.624947,50.973915 20.587429,61.009869 20.196531,70.790375 
	C19.498371,88.258728 19.977718,105.775070 20.007856,123.271278 
	C20.027859,134.884567 20.965305,146.326797 23.845953,157.706146 
	C26.654993,168.802628 38.113258,178.137543 48.078411,179.818954 
	C57.085361,181.338669 66.349686,181.333008 76.500259,182.000000 
z"/>
<path fill="#fff" opacity="1.000000" stroke="none" 
	d="
M157.468658,201.000000 
	C157.640411,200.327728 158.157684,199.338821 158.941071,199.034134 
	C164.385117,196.916794 170.240417,195.581894 175.286011,192.776855 
	C183.749313,188.071808 189.926819,180.686386 194.765289,172.393921 
	C197.122177,168.354568 198.527328,163.759888 200.681641,159.708282 
	C201.000000,173.595932 201.000000,187.191879 201.000000,201.000000 
	C186.646469,201.000000 172.291885,201.000000 157.468658,201.000000 
z"/>
<path fill="#fff" opacity="1.000000" stroke="none" 
	d="
M1.000000,160.468658 
	C2.001364,161.214859 3.529943,162.280701 3.921943,163.667786 
	C7.548536,176.500290 15.651577,185.971741 26.694229,192.729935 
	C31.615952,195.742065 37.644409,196.939194 43.153934,199.004440 
	C44.011879,199.326050 44.780685,199.885452 45.295357,200.667450 
	C30.409239,201.000000 15.818477,201.000000 1.000000,201.000000 
	C1.000000,187.646637 1.000000,174.291977 1.000000,160.468658 
z"/>
<path fill="#fff" opacity="1.000000" stroke="none" 
	d="
M201.000000,41.531342 
	C200.006683,40.962742 198.413361,40.075203 198.111496,38.865406 
	C194.519058,24.468914 184.886322,14.829795 172.791077,7.541636 
	C168.584152,5.006687 163.176865,4.476972 158.340561,2.958941 
	C157.631607,2.736411 157.049576,2.109552 156.704407,1.334889 
	C171.590759,1.000000 186.181534,1.000000 201.000000,1.000000 
	C201.000000,14.353366 201.000000,27.708025 201.000000,41.531342 
z"/>
<path fill="#fff" opacity="1.000000" stroke="none" 
	d="
M44.531342,1.000001 
	C43.454933,1.999305 42.036613,3.474321 40.345352,3.924952 
	C21.692949,8.894825 9.264467,20.201811 3.923131,38.984577 
	C3.550639,40.294441 2.426713,41.390614 1.326110,42.293079 
	C1.000000,28.404062 1.000000,14.808126 1.000000,1.000000 
	C15.353531,1.000000 29.708107,1.000000 44.531342,1.000001 
z"/>
<path fill="#fff" opacity="1.000000" stroke="none" 
	d="
M76.000389,182.000000 
	C66.349686,181.333008 57.085361,181.338669 48.078411,179.818954 
	C38.113258,178.137543 26.654993,168.802628 23.845953,157.706146 
	C20.965305,146.326797 20.027859,134.884567 20.007856,123.271278 
	C19.977718,105.775070 19.498371,88.258728 20.196531,70.790375 
	C20.587429,61.009869 20.624947,50.973915 24.749706,41.607937 
	C29.416689,31.010744 37.197308,23.991863 48.508087,22.176931 
	C58.021038,20.650480 67.775459,20.222824 77.433678,20.090694 
	C98.758461,19.798960 120.105049,19.542950 141.410629,20.245884 
	C148.950638,20.494652 157.082626,22.263502 163.694366,25.725540 
	C170.338486,29.204535 175.923965,35.449684 177.882019,43.347687 
	C179.429825,49.590874 180.692490,56.057304 180.874908,62.458988 
	C181.527664,85.363441 182.133835,108.289795 181.777832,131.192642 
	C181.628357,140.807907 180.271667,150.797638 177.250809,159.881180 
	C172.915176,172.918228 161.925446,179.023071 148.705307,180.939713 
	C143.850296,181.643585 138.898041,181.925507 133.987549,181.954239 
	C114.825691,182.066376 95.662781,182.000000 76.000389,182.000000 
M48.041019,98.727371 
	C48.360462,101.304291 49.070549,103.902672 48.930374,106.454338 
	C48.381863,116.439026 52.836121,125.275856 58.404869,132.198914 
	C71.936813,149.021805 90.141426,156.359055 111.930824,151.937500 
	C125.152084,149.254608 136.403625,142.708786 144.008636,131.423340 
	C151.238571,120.694473 154.792831,108.926216 153.191971,95.466103 
	C151.410339,80.485924 145.199371,68.487938 133.143478,59.689945 
	C116.201569,47.326298 97.901062,45.378582 78.683456,53.829128 
	C69.031120,58.073547 61.375450,64.595741 55.907787,73.875511 
	C51.465611,81.414818 48.870800,89.287422 48.041019,98.727371 
M167.000000,47.505795 
	C166.749969,45.608688 166.919724,43.525150 166.174805,41.847828 
	C163.437622,35.684570 158.097580,34.269947 152.011673,35.046936 
	C146.657120,35.730549 143.600174,38.707359 141.766113,44.127720 
	C139.800186,49.937725 142.035049,54.176868 145.507614,57.579563 
	C149.260742,61.257172 154.837036,60.711445 159.535126,59.678745 
	C164.250031,58.642357 166.935577,53.647358 167.000000,47.505795 
z"/>
<path fill="#230640" opacity="1.000000" stroke="none" 
	d="
M48.291542,98.348770 
	C48.870800,89.287422 51.465611,81.414818 55.907787,73.875511 
	C61.375450,64.595741 69.031120,58.073547 78.683456,53.829128 
	C97.901062,45.378582 116.201569,47.326298 133.143478,59.689945 
	C145.199371,68.487938 151.410339,80.485924 153.191971,95.466103 
	C154.792831,108.926216 151.238571,120.694473 144.008636,131.423340 
	C136.403625,142.708786 125.152084,149.254608 111.930824,151.937500 
	C90.141426,156.359055 71.936813,149.021805 58.404869,132.198914 
	C52.836121,125.275856 48.381863,116.439026 48.930374,106.454338 
	C49.070549,103.902672 48.360462,101.304291 48.291542,98.348770 
M107.214561,132.998413 
	C110.157318,131.830200 113.195274,130.854309 116.023293,129.454330 
	C122.201096,126.396111 126.058723,121.125427 129.355713,115.243065 
	C134.423553,106.201248 134.438141,96.809196 130.123047,87.903526 
	C126.077309,79.553787 119.827461,72.996078 110.355003,69.949768 
	C101.823257,67.205971 93.880074,68.349495 86.308876,72.298088 
	C77.750061,76.761734 72.755363,84.221344 69.959496,93.409180 
	C66.306084,105.415100 72.273109,118.632133 80.139626,125.456131 
	C87.515350,131.854416 96.307045,135.048050 107.214561,132.998413 
z"/>
<path fill="#230640" opacity="1.000000" stroke="none" 
	d="
M167.000000,47.944717 
	C166.935577,53.647358 164.250031,58.642357 159.535126,59.678745 
	C154.837036,60.711445 149.260742,61.257172 145.507614,57.579563 
	C142.035049,54.176868 139.800186,49.937725 141.766113,44.127720 
	C143.600174,38.707359 146.657120,35.730549 152.011673,35.046936 
	C158.097580,34.269947 163.437622,35.684570 166.174805,41.847828 
	C166.919724,43.525150 166.749969,45.608688 167.000000,47.944717 
z"/>
<path fill="#fff" opacity="1.000000" stroke="none" 
	d="
M106.785614,132.999161 
	C96.307045,135.048050 87.515350,131.854416 80.139626,125.456131 
	C72.273109,118.632133 66.306084,105.415100 69.959496,93.409180 
	C72.755363,84.221344 77.750061,76.761734 86.308876,72.298088 
	C93.880074,68.349495 101.823257,67.205971 110.355003,69.949768 
	C119.827461,72.996078 126.077309,79.553787 130.123047,87.903526 
	C134.438141,96.809196 134.423553,106.201248 129.355713,115.243065 
	C126.058723,121.125427 122.201096,126.396111 116.023293,129.454330 
	C113.195274,130.854309 110.157318,131.830200 106.785614,132.999161 
z"/>
</svg>